<?xml version="1.0" encoding="UTF-8" standalone="no"?>
<!-- Created with Inkscape (http://www.inkscape.org/) -->

<svg
   xmlns:dc="http://purl.org/dc/elements/1.1/"
   xmlns:cc="http://creativecommons.org/ns#"
   xmlns:rdf="http://www.w3.org/1999/02/22-rdf-syntax-ns#"
   xmlns:svg="http://www.w3.org/2000/svg"
   xmlns="http://www.w3.org/2000/svg"
   xmlns:sodipodi="http://sodipodi.sourceforge.net/DTD/sodipodi-0.dtd"
   xmlns:inkscape="http://www.inkscape.org/namespaces/inkscape"
   width="300"
   height="300"
   id="svg3791"
   version="1.1"
   inkscape:version="0.48.4 r9939"
   sodipodi:docname="New document 2">
  <defs
     id="defs3793">
    <clipPath
       clipPathUnits="userSpaceOnUse"
       id="clipPath1310">
      <path
         inkscape:connector-curvature="0"
         d="M 0,96 96,96 96,0 0,0 0,96 z"
         id="path1312" />
    </clipPath>
  </defs>
  <sodipodi:namedview
     id="base"
     pagecolor="#ffffff"
     bordercolor="#666666"
     borderopacity="1.0"
     inkscape:pageopacity="0.0"
     inkscape:pageshadow="2"
     inkscape:zoom="0.35"
     inkscape:cx="375"
     inkscape:cy="152.85714"
     inkscape:document-units="px"
     inkscape:current-layer="layer1"
     showgrid="false"
     inkscape:window-width="1280"
     inkscape:window-height="1002"
     inkscape:window-x="-8"
     inkscape:window-y="-8"
     inkscape:window-maximized="1" />
  <metadata
     id="metadata3796">
    <rdf:RDF>
      <cc:Work
         rdf:about="">
        <dc:format>image/svg+xml</dc:format>
        <dc:type
           rdf:resource="http://purl.org/dc/dcmitype/StillImage" />
        <dc:title></dc:title>
      </cc:Work>
    </rdf:RDF>
  </metadata>
  <g
     inkscape:label="Layer 1"
     inkscape:groupmode="layer"
     id="layer1"
     transform="translate(0,-752.36218)">
    <g
       id="g1306"
       transform="matrix(3.7591211,0,0,-3.7591211,-29.152714,1084.2293)"
       style="fill:#909090">
      <g
         id="g1308"
         clip-path="url(#clipPath1310)"
         style="fill:#909090">
        <g
           id="g1314"
           transform="translate(46.7627,64.7656)"
           style="fill:#909090">
          <path
             d="m 0,0 -23.515,-23.748 c 0,0 2.029,-1.913 7.241,-1.683 1.114,-2.374 2.169,-5.169 8.256,-8.029 -0.246,-4.967 2.145,-7.755 2.145,-7.755 l 23.531,23.726 c -0.286,3.237 -2.708,7.267 -6.549,11.065 C 5.856,-1.219 1.461,-0.205 0,0"
             style="fill:#909090;fill-opacity:1;fill-rule:nonzero;stroke:none"
             id="path1316"
             inkscape:connector-curvature="0" />
        </g>
        <g
           id="g1318"
           transform="translate(80.7813,81.748)"
           style="fill:#909090">
          <path
             d="m 0,0 c -6.904,5.659 -11.676,4 -14.107,1.658 -0.845,-0.817 -3.516,-2.968 -5.469,-4.533 2.199,-0.141 6.617,-1.09 11.468,-5.891 4.825,-4.777 5.746,-8.861 5.798,-11.14 1.641,2.121 4.216,5.442 4.615,5.844 C 4.962,-11.355 6.904,-5.658 0,0"
             style="fill:#909090;fill-opacity:1;fill-rule:nonzero;stroke:none"
             id="path1320"
             inkscape:connector-curvature="0" />
        </g>
        <g
           id="g1322"
           transform="translate(27.0459,36.502)"
           style="fill:#909090">
          <path
             d="m 0,0 c -4.659,-0.012 -5.748,1.031 -5.748,1.031 l -10.818,-27.11 27.004,11.218 c 0,0 -2.143,4.243 -2.088,6.515 C 6.463,-7.746 1.516,-4.739 0,0"
             style="fill:#909090;fill-opacity:1;fill-rule:nonzero;stroke:none"
             id="path1324"
             inkscape:connector-curvature="0" />
        </g>
        <g
           id="g1326"
           transform="translate(58.1689,76.2656)"
           style="fill:#909090">
          <path
             d="m 0,0 -2.681,-2.638 c 0,0 5.119,-0.833 11.186,-6.845 3.807,-3.781 5.862,-7.779 6.229,-10.572 l 2.56,2.553 c 0,0 0.891,4.625 -5.69,11.201 C 5.14,0.164 0,0 0,0"
             style="fill:#909090;fill-opacity:1;fill-rule:nonzero;stroke:none"
             id="path1328"
             inkscape:connector-curvature="0" />
        </g>
        <g
           id="g1330"
           transform="translate(53.1113,70.3398)"
           style="fill:#909090">
          <path
             d="m 0,0 -2.562,-2.526 c 0,0 4.904,-0.797 10.707,-6.559 3.645,-3.614 5.615,-7.439 5.968,-10.116 l 2.448,2.45 c 0,0 0.851,4.425 -5.448,10.722 C 4.929,0.158 0,0 0,0"
             style="fill:#909090;fill-opacity:1;fill-rule:nonzero;stroke:none"
             id="path1332"
             inkscape:connector-curvature="0" />
        </g>
      </g>
    </g>
  </g>
</svg>
