<?xml version="1.0" encoding="UTF-8" standalone="no"?>
<!-- Created with Inkscape (http://www.inkscape.org/) -->

<svg
   xmlns:dc="http://purl.org/dc/elements/1.1/"
   xmlns:cc="http://creativecommons.org/ns#"
   xmlns:rdf="http://www.w3.org/1999/02/22-rdf-syntax-ns#"
   xmlns:svg="http://www.w3.org/2000/svg"
   xmlns="http://www.w3.org/2000/svg"
   xmlns:sodipodi="http://sodipodi.sourceforge.net/DTD/sodipodi-0.dtd"
   xmlns:inkscape="http://www.inkscape.org/namespaces/inkscape"
   width="300"
   height="300"
   id="svg3783"
   version="1.1"
   inkscape:version="0.48.4 r9939"
   sodipodi:docname="New document 2">
  <defs
     id="defs3785">
    <clipPath
       clipPathUnits="userSpaceOnUse"
       id="clipPath1210">
      <path
         inkscape:connector-curvature="0"
         d="M 0,96 96,96 96,0 0,0 0,96 z"
         id="path1212" />
    </clipPath>
  </defs>
  <sodipodi:namedview
     id="base"
     pagecolor="#ffffff"
     bordercolor="#666666"
     borderopacity="1.0"
     inkscape:pageopacity="0.0"
     inkscape:pageshadow="2"
     inkscape:zoom="0.35"
     inkscape:cx="375"
     inkscape:cy="152.85714"
     inkscape:document-units="px"
     inkscape:current-layer="layer1"
     showgrid="false"
     inkscape:window-width="698"
     inkscape:window-height="424"
     inkscape:window-x="1918"
     inkscape:window-y="244"
     inkscape:window-maximized="0" />
  <metadata
     id="metadata3788">
    <rdf:RDF>
      <cc:Work
         rdf:about="">
        <dc:format>image/svg+xml</dc:format>
        <dc:type
           rdf:resource="http://purl.org/dc/dcmitype/StillImage" />
        <dc:title></dc:title>
      </cc:Work>
    </rdf:RDF>
  </metadata>
  <g
     inkscape:label="Layer 1"
     inkscape:groupmode="layer"
     id="layer1"
     transform="translate(0,-752.36218)">
    <g
       id="g1206"
       transform="matrix(3.4106181,0,0,-3.4106181,-13.166379,1063.2154)"
       style="fill:#909090">
      <g
         id="g1208"
         clip-path="url(#clipPath1210)"
         style="fill:#909090">
        <g
           id="g1214"
           transform="translate(17.9951,8.9902)"
           style="fill:#909090">
          <path
             d="m 0,0 0,72.02 24,0 c 0,3.32 2.689,6 6,6 3.32,0 6.01,-2.68 6.01,-6 l 24,0 L 60.01,0 0,0 z m 30,75.02 c -1.65,0 -3,-1.34 -3,-3 0,-1.65 1.35,-3 3,-3 1.66,0 3,1.35 3,3 0,1.66 -1.34,3 -3,3 m 24.01,-9 -14,0 1.16,-3.49 c 5.519,-1.211 6.84,-4.56 6.84,-8.51 l -36.01,0 c 0,3.76 1.56,6.969 6.77,8.309 L 20,66.02 6,66.02 6,6 l 48.01,0 0,60.02 z M 32,44.01 l -20,0 0,2 20,0 0,-2 z m 16.01,-6 -36.01,0 0,2 36.01,0 0,-2 z m -10,-6 -26.01,0 0,2 26.01,0 0,-2 z m -6.01,-6 -20,0 0,2 20,0 0,-2 z m 14.01,-6 -34.01,0 0,2 34.01,0 0,-2 z"
             style="fill:#909090;fill-opacity:1;fill-rule:evenodd;stroke:none"
             id="path1216"
             inkscape:connector-curvature="0" />
        </g>
      </g>
    </g>
  </g>
</svg>
