<?xml version="1.0" encoding="UTF-8" standalone="no"?>
<!-- Created with Inkscape (http://www.inkscape.org/) -->

<svg
   xmlns:dc="http://purl.org/dc/elements/1.1/"
   xmlns:cc="http://creativecommons.org/ns#"
   xmlns:rdf="http://www.w3.org/1999/02/22-rdf-syntax-ns#"
   xmlns:svg="http://www.w3.org/2000/svg"
   xmlns="http://www.w3.org/2000/svg"
   xmlns:sodipodi="http://sodipodi.sourceforge.net/DTD/sodipodi-0.dtd"
   xmlns:inkscape="http://www.inkscape.org/namespaces/inkscape"
   width="300"
   height="300"
   id="svg3767"
   version="1.1"
   inkscape:version="0.48.4 r9939"
   sodipodi:docname="trash.svg">
  <defs
     id="defs3769" />
  <sodipodi:namedview
     id="base"
     pagecolor="#ffffff"
     bordercolor="#666666"
     borderopacity="1.0"
     inkscape:pageopacity="0.0"
     inkscape:pageshadow="2"
     inkscape:zoom="1.4"
     inkscape:cx="199.71284"
     inkscape:cy="115.22952"
     inkscape:document-units="px"
     inkscape:current-layer="layer1"
     showgrid="false"
     inkscape:window-width="1536"
     inkscape:window-height="803"
     inkscape:window-x="-8"
     inkscape:window-y="-8"
     inkscape:window-maximized="1"
     inkscape:snap-page="true" />
  <metadata
     id="metadata3772">
    <rdf:RDF>
      <cc:Work
         rdf:about="">
        <dc:format>image/svg+xml</dc:format>
        <dc:type
           rdf:resource="http://purl.org/dc/dcmitype/StillImage" />
        <dc:title></dc:title>
      </cc:Work>
    </rdf:RDF>
  </metadata>
  <g
     inkscape:label="Layer 1"
     inkscape:groupmode="layer"
     id="layer1"
     transform="translate(0,-752.36218)">
    <path
       style="fill:#000000;fill-rule:evenodd;stroke:#000000;stroke-width:0.98716664px;stroke-linecap:butt;stroke-linejoin:miter;stroke-opacity:1"
       d="M 45.390273,815.27964 74.450378,1030.359 c 50.725402,15.9012 101.459622,14.4644 152.185012,0.8649 l 24.6319,-215.94426 c -68.62847,9.49476 -137.24853,7.31459 -205.877017,0 z M 151.2521,849.01012 c 5.57502,-0.0928 10.14748,4.31925 10.24022,9.89427 l 2.07573,125.23522 c 0.0928,5.57502 -4.31925,10.14746 -9.89428,10.24024 -5.57502,0.093 -10.14748,-4.31927 -10.24023,-9.89429 l -2.07572,-125.23522 c -0.0928,-5.57502 4.31925,-10.14748 9.89428,-10.24022 z m -63.171148,6.95366 c 4.494646,-0.0385 8.45041,3.28483 9.098589,7.81856 l 15.533319,108.62944 c 0.69138,4.83598 -2.65093,9.15628 -7.5072,9.6867 l -2.45627,0.27676 c -4.856276,0.53042 -9.306679,-2.91338 -9.998064,-7.74936 L 77.218008,865.99644 c -0.691387,-4.83598 2.65092,-9.15628 7.507193,-9.6867 l 2.456271,-0.27677 c 0.303517,-0.0331 0.599836,-0.0666 0.89948,-0.0692 z m 123.055718,0.93408 c 0.29943,-0.007 0.59512,0.0113 0.89948,0.0345 l 2.45627,0.17298 c 4.86979,0.37292 8.37417,4.58835 7.85315,9.44453 l -11.69323,109.07918 c -0.52103,4.85618 -4.88611,8.46824 -9.7559,8.09532 l -2.45627,-0.17298 c -4.86978,-0.37292 -8.37417,-4.58835 -7.85314,-9.44453 l 11.72782,-109.07919 c 0.48846,-4.55267 4.33054,-8.02288 8.82182,-8.12991 z"
       id="rect2999"
       inkscape:connector-curvature="0" />
    <rect
       style="fill:#000000"
       id="rect3780"
       width="234.06235"
       height="34.793053"
       x="31.428576"
       y="789.32324"
       ry="8.8179703" />
    <path
       style="fill:#000000"
       d="m 126.44722,761.65682 c -4.88516,0 -8.82182,3.93667 -8.82182,8.82182 l 0,18.71609 c 0,4.88516 3.93666,8.82182 8.82182,8.82182 l 4.77416,0 0,-4.39361 c 0,-9.39453 7.5572,-16.95173 16.95173,-16.95173 l 6.43474,0 c 9.39453,0 16.95173,7.5572 16.95173,16.95173 l 0,4.39361 4.4628,0 c 4.88515,0 8.82182,-3.93666 8.82182,-8.82182 l 0,-18.71609 c 0,-4.88515 -3.93667,-8.82182 -8.82182,-8.82182 l -49.57516,0 z"
       id="rect3782"
       inkscape:connector-curvature="0" />
  </g>
</svg>
